<svg width="76" height="20" viewBox="0 0 76 20" fill="none" xmlns="http://www.w3.org/2000/svg">
    <g clip-path="url(#d207u210ga)" fill="#000" fill-opacity=".8">
        <path d="M8.363 0H0v20L8.363 0zM14.247 0H22.6v20L14.247 0zM11.305 7.371 16.628 20h-3.492l-1.591-4.02H7.649l3.656-8.609zM36.242 12.719l.986 2.827c.033.07.082.104.169.104h1.896c.104 0 .12-.05.104-.153l-3.918-10.88c-.016-.087-.032-.103-.12-.103h-2.353c-.066 0-.104.049-.104.12-.032.572-.081.746-.152.915l-3.492 9.932c-.017.12.021.169.12.169h1.694c.103 0 .152-.033.19-.137l.932-2.794h4.048zm-3.508-1.847c.512-1.548 1.187-3.53 1.46-4.664h.016c.338 1.188 1.133 3.541 1.493 4.664h-2.97zM44.432 15.819a8.036 8.036 0 0 0 3.204-.66c.087-.032.103-.07.103-.152-.032-.305-.07-.747-.07-1.085V3.68c0-.065 0-.098-.082-.098H45.74c-.07 0-.104.033-.104.12v3.47a6.074 6.074 0 0 0-.73-.049c-2.98 0-4.81 1.967-4.81 4.424 0 2.85 1.88 4.271 4.336 4.271zm1.204-1.897a3.244 3.244 0 0 1-.986.137c-1.35 0-2.457-.763-2.457-2.615 0-1.64 1.139-2.61 2.648-2.61.305 0 .572.033.795.12v4.968zM53.632 7.123c-2.545 0-4.12 1.95-4.12 4.359 0 2.152 1.254 4.336 4.081 4.336 2.392 0 4.07-1.76 4.07-4.39 0-2.322-1.422-4.305-4.031-4.305zm-.104 1.71c1.438 0 2.048 1.237 2.048 2.649 0 1.743-.898 2.61-1.944 2.61-1.292 0-2.054-1.085-2.054-2.649 0-1.607.811-2.61 1.95-2.61zM59.572 3.582c-.07 0-.12.033-.12.12v11.594c0 .049.05.136.12.152.812.25 1.662.37 2.539.37 2.511 0 4.952-1.558 4.952-4.696 0-2.272-1.558-3.999-3.999-3.999-.56 0-1.084.087-1.542.24l-.021-3.645c0-.12-.033-.136-.153-.136h-1.776zm5.404 7.747c0 1.88-1.285 2.762-2.675 2.762-.288 0-.544-.016-.779-.087V9.057c.267-.103.589-.19 1.183-.19 1.34 0 2.272.85 2.272 2.462zM73.956 11.94c.828 0 1.51-.017 1.744-.072.087-.016.12-.049.136-.12.049-.185.07-.572.07-1.045 0-1.613-.97-3.58-3.475-3.58-2.56 0-3.983 2.087-3.983 4.44 0 2.087 1.1 4.255 4.184 4.255 1.155 0 1.902-.185 2.545-.49.065-.033.098-.087.098-.185v-1.411c0-.082-.05-.098-.098-.066a5.323 5.323 0 0 1-2.103.409c-1.727 0-2.512-.954-2.56-2.136h3.442zm-3.443-1.46c.136-.829.66-1.728 1.83-1.728 1.292 0 1.63 1.084 1.63 1.574v.137c-.071.016-.29.016-.932.016h-2.528z"/>
    </g>
    <defs>
        <clipPath id="d207u210ga">
            <path fill="#fff" d="M0 0h75.907v20H0z"/>
        </clipPath>
    </defs>
</svg>
