<svg width="109" height="20" viewBox="0 0 109 20" fill="current" xmlns="http://www.w3.org/2000/svg">
<g clip-path="url(#clip0_3788_8210)">
<path
      d="M9.62874 0C10.5458 0 11.3929 0.069869 12.1702 0.279476C12.9475 0.419214 13.5851 0.707424 14.1528 1.05677C14.7204 1.40611 15.1397 1.90393 15.4279 2.54148C15.7073 3.17904 15.8558 3.95633 15.8558 4.80349C15.8558 5.79039 15.6462 6.63755 15.1484 7.27511C14.7204 7.91266 14.0217 8.48035 13.1659 8.89956C14.3711 9.24891 15.2881 9.88646 15.8471 10.7336C16.406 11.5808 16.7641 12.6376 16.7641 13.8428C16.7641 14.8297 16.5545 15.6769 16.1964 16.3843C15.8471 17.0917 15.2794 17.7293 14.6418 18.1485C14.0043 18.5764 13.227 18.9258 12.3798 19.1354C11.5327 19.345 10.6855 19.4847 9.83834 19.4847L0.371094 19.5022V0H9.62874ZM9.06105 7.91266C9.83834 7.91266 10.4759 7.70306 10.965 7.34498C11.4541 6.9869 11.6724 6.35808 11.6724 5.58079C11.6724 5.15284 11.6025 4.73362 11.4628 4.45415C11.3231 4.17467 11.1135 3.95633 10.8252 3.74672C10.5458 3.60699 10.2576 3.46725 9.90821 3.39738C9.55887 3.32751 9.20079 3.32751 8.78157 3.32751H4.6855V7.9214C4.6855 7.91266 9.06105 7.91266 9.06105 7.91266ZM9.27066 16.2533C9.6986 16.2533 10.1178 16.1834 10.4759 16.1135C10.8252 16.0437 11.1833 15.9039 11.4628 15.6856C11.7423 15.4672 11.9606 15.2576 12.1702 14.9083C12.31 14.559 12.4497 14.131 12.4497 13.6332C12.4497 12.6463 12.1702 11.9389 11.6025 11.441C11.0348 11.0131 10.2576 10.8035 9.34053 10.8035H4.6855V16.2445H9.27066V16.2533Z"
      fill="current"
    />
<path
      d="M22.9123 16.1832C23.48 16.7508 24.3271 17.0303 25.4538 17.0303C26.2311 17.0303 26.9385 16.8207 27.5062 16.4626C28.0739 16.0347 28.4232 15.6155 28.5629 15.1875H32.0215C31.4538 16.8818 30.6066 18.0871 29.48 18.8644C28.3533 19.5718 27.0083 19.991 25.3839 19.991C24.2573 19.991 23.2616 19.7814 22.3446 19.4233C21.4276 19.074 20.7201 18.5762 20.0826 17.8687C19.445 17.2312 18.9559 16.4539 18.6677 15.5369C18.3184 14.6198 18.1699 13.6329 18.1699 12.4976C18.1699 11.4408 18.3097 10.4452 18.6677 9.52813C19.0258 8.6111 19.5149 7.83381 20.1525 7.12639C20.79 6.48883 21.5673 5.92115 22.4145 5.5718C23.3315 5.22246 24.2485 5.00412 25.3839 5.00412C26.5891 5.00412 27.6459 5.21372 28.5629 5.71154C29.48 6.20936 30.1874 6.76831 30.7551 7.61547C31.3228 8.39276 31.742 9.30979 32.0302 10.2967C32.1699 11.2836 32.2398 12.2792 32.1699 13.4059H21.9254C21.9254 14.5587 22.3446 15.6155 22.9123 16.1832ZM27.3664 8.75957C26.8686 8.26176 26.0913 7.98228 25.1743 7.98228C24.5367 7.98228 24.0477 8.12202 23.6197 8.33163C23.1918 8.54123 22.9123 8.82944 22.6328 9.10892C22.3533 9.38839 22.2049 9.74647 22.135 10.0958C22.0651 10.4452 21.9952 10.7334 21.9952 11.0128H28.3533C28.2136 9.96481 27.8555 9.25739 27.3664 8.75957ZM21.1481 1.34473H29.0608V3.24866H21.1481V1.34473Z"
      fill="current"
    />
<path
      d="M37.6814 0V7.34498H37.7513C38.2491 6.49782 38.8779 5.93013 39.6552 5.58079C40.4325 5.23144 41.1399 5.0131 41.9172 5.0131C42.974 5.0131 43.8211 5.15284 44.4587 5.44105C45.0962 5.72052 45.6639 6.14847 46.0133 6.64629C46.3626 7.1441 46.6508 7.77293 46.7906 8.48035C46.9303 9.18777 47.0002 9.96507 47.0002 10.8821V19.5721H43.1137V11.5895C43.1137 10.3843 42.9041 9.53712 42.546 8.97817C42.1879 8.41921 41.5678 8.12227 40.6508 8.12227C39.594 8.12227 38.8168 8.47162 38.3888 9.0393C37.891 9.67686 37.6814 10.7336 37.6814 12.1485V19.5721H33.7949V0H37.6814Z"
      fill="current"
    />
<path
      d="M49.8392 7.4931C50.2671 6.85555 50.7562 6.43633 51.3937 6.00838C52.0313 5.65904 52.7387 5.37083 53.516 5.23109C54.2933 5.09135 55.0706 5.02148 55.8479 5.02148C56.5553 5.02148 57.2627 5.09135 58.04 5.16122C58.7475 5.23109 59.4549 5.4407 60.0226 5.72891C60.6601 6.00838 61.0793 6.43633 61.5073 6.93415C61.8566 7.43196 62.075 8.13939 62.075 8.98655V16.4101C62.075 17.0477 62.1448 17.6852 62.2147 18.2442C62.2846 18.8119 62.4942 19.301 62.7125 19.5892H58.7562C58.6165 19.4494 58.5466 19.1612 58.4767 18.9516C58.4068 18.742 58.4068 18.4538 58.4068 18.2442C57.7693 18.8817 57.0619 19.301 56.2147 19.5892C55.3676 19.8686 54.5204 19.9385 53.6732 19.9385C52.9658 19.9385 52.3981 19.8686 51.7693 19.659C51.2016 19.5193 50.7125 19.2311 50.2147 18.8817C49.7868 18.5324 49.4374 18.1045 49.1579 17.5368C48.9483 16.9691 48.8086 16.4101 48.8086 15.6328C48.8086 14.8555 48.9483 14.1481 49.2365 13.6503C49.516 13.1525 49.8741 12.7333 50.2933 12.3752C50.7213 12.0957 51.2802 11.8075 51.8479 11.6678C52.4156 11.528 52.9745 11.3883 53.6121 11.3184C54.1798 11.2486 54.7387 11.1787 55.3064 11.1088C55.8741 11.039 56.3632 10.9691 56.7911 10.8992C57.2191 10.7595 57.5684 10.6197 57.8479 10.4014C58.1274 10.1918 58.1972 9.90358 58.1972 9.48437C58.1972 9.05642 58.1274 8.70707 57.9876 8.49747C57.8479 8.28786 57.6383 8.06952 57.42 7.92978C57.2103 7.79004 56.9221 7.72017 56.6427 7.65031C56.3632 7.58044 56.0051 7.58044 55.6558 7.58044C54.8785 7.58044 54.3108 7.72017 53.8916 8.07825C53.4636 8.4276 53.1841 8.99528 53.1143 9.70271H49.2278C49.2016 8.82934 49.4811 8.05205 49.8392 7.4931ZM57.5422 13.004C57.3326 13.0739 57.0444 13.1438 56.7649 13.2136C56.4855 13.2835 56.1972 13.2835 55.8479 13.3534C55.5684 13.4232 55.2103 13.4232 54.9309 13.4931C54.6514 13.563 54.3632 13.6328 54.0837 13.7027C53.8042 13.7726 53.516 13.9123 53.3763 14.0521C53.1667 14.1918 53.0269 14.4014 52.8785 14.6197C52.6689 14.8992 52.6689 15.1874 52.6689 15.5368C52.6689 15.8861 52.7387 16.1743 52.8785 16.3839C53.0182 16.5935 53.1579 16.8119 53.3763 16.9516C53.5859 17.0914 53.8741 17.1612 54.1536 17.2311C54.433 17.301 54.7213 17.301 55.0706 17.301C55.8479 17.301 56.4156 17.1612 56.8348 16.9516C57.2627 16.6721 57.5422 16.3839 57.7518 16.0346C57.9614 15.6852 58.1012 15.3272 58.1012 14.9778C58.171 14.6285 58.171 14.3403 58.171 14.1307V12.6459C57.9614 12.7857 57.7518 12.9341 57.5422 13.004Z"
      fill="current"
    />
<path
      d="M67.9259 5.37083V7.35336H67.9957C68.4935 6.5062 69.1224 5.93851 69.8997 5.58917C70.6769 5.23982 71.5241 5.02148 72.3014 5.02148C73.3582 5.02148 74.2053 5.16122 74.8429 5.44943C75.5503 5.72891 76.0481 6.15686 76.3975 6.65467C76.7468 7.15249 77.035 7.78131 77.2446 8.48873C77.3844 9.19616 77.4542 9.97345 77.4542 10.8905V19.5804H73.5678V11.5979C73.5678 10.3927 73.3582 9.5455 73.0001 8.98655C72.6507 8.41886 72.0132 8.06952 71.0176 8.06952C69.9608 8.06952 69.1835 8.49747 68.6857 9.12629C68.1879 9.76384 67.9783 10.8206 67.9783 12.2355V19.659H64.0918V5.37083C64.1093 5.37083 67.9259 5.37083 67.9259 5.37083Z"
      fill="current"
    />
<path
      d="M86.1612 7.91226C85.5237 7.91226 85.0346 8.052 84.6067 8.34021C84.1787 8.61968 83.8294 8.97776 83.5499 9.46684C83.2704 9.89479 83.1219 10.3839 82.9822 10.9516C82.8425 11.5192 82.8425 12.0083 82.8425 12.576C82.8425 13.0738 82.9123 13.6328 82.9822 14.1306C83.1219 14.6983 83.2617 15.1175 83.5499 15.5454C83.8294 15.9734 84.1176 16.3227 84.5368 16.6022C84.9647 16.8817 85.4538 17.0302 86.0914 17.0302C87.0084 17.0302 87.7158 16.7507 88.2835 16.2529C88.7813 15.7551 89.1307 15.0476 89.2005 14.1306H92.9473C92.6678 16.0345 91.9604 17.4494 90.7551 18.445C89.5499 19.4319 87.9953 19.9297 86.0914 19.9297C85.0346 19.9297 84.039 19.7201 83.1918 19.362C82.2748 19.0127 81.5674 18.5149 80.9298 17.8773C80.2922 17.2398 79.8032 16.4625 79.4451 15.6153C79.0957 14.6983 78.9473 13.7813 78.9473 12.7158C78.9473 11.5891 79.087 10.5935 79.4451 9.67645C79.7944 8.75942 80.2224 7.91226 80.8599 7.20483C81.4975 6.49741 82.2748 5.99959 83.1219 5.58038C84.039 5.23104 85.0259 5.0127 86.1612 5.0127C87.0084 5.0127 87.7857 5.15243 88.563 5.36204C89.3403 5.57165 90.0477 5.92973 90.6154 6.34894C91.2529 6.77689 91.742 7.33584 92.1001 8.04326C92.4495 8.68082 92.6678 9.52798 92.7377 10.445H88.9211C88.7726 8.75942 87.8556 7.91226 86.1612 7.91226Z"
      fill="current"
    />
<path
      d="M98.8083 16.1829C99.376 16.7506 100.293 17.0301 101.35 17.0301C102.127 17.0301 102.835 16.8205 103.402 16.4624C103.97 16.0345 104.319 15.6153 104.459 15.1873H107.848C107.28 16.8816 106.433 18.0869 105.306 18.8642C104.179 19.5716 102.835 19.9908 101.21 19.9908C100.083 19.9908 99.0878 19.7812 98.1708 19.4231C97.2537 19.0738 96.5463 18.576 95.9088 17.8685C95.2712 17.231 94.7821 16.4537 94.4939 15.5367C94.1446 14.6196 93.9961 13.6327 93.9961 12.4974C93.9961 11.4406 94.1358 10.445 94.4939 9.52792C94.8433 8.61089 95.3411 7.8336 95.9786 7.12618C96.6162 6.48862 97.3935 5.92094 98.2406 5.57159C99.1577 5.22225 100.145 5.00391 101.21 5.00391C102.415 5.00391 103.472 5.21351 104.319 5.71133C105.236 6.20915 105.944 6.7681 106.511 7.61526C107.079 8.39255 107.498 9.30958 107.786 10.2965C108.066 11.2834 108.136 12.3489 108.066 13.4755H97.8214C97.8214 14.5585 98.2406 15.6153 98.8083 16.1829ZM103.332 8.75937C102.835 8.26155 102.057 7.98207 101.14 7.98207C100.503 7.98207 100.014 8.12181 99.5856 8.33142C99.1577 8.54102 98.8083 8.82923 98.5987 9.10871C98.3891 9.38819 98.1708 9.74626 98.1009 10.0956C98.031 10.445 97.9612 10.7332 97.9612 11.0126H104.319C104.11 9.9646 103.752 9.25718 103.332 8.75937Z"
      fill="current"
    />
</g>
<defs>
<clipPath id="clip0_3788_8210">
<rect width="107.721" height="20" fill="current" transform="translate(0.371094)" />
</clipPath>
</defs>
</svg>
