<svg width="109" height="20" viewBox="0 0 109 20" preserveAspectRatio="none" fill="none" xmlns="http://www.w3.org/2000/svg">
    <g clip-path="url(#g8dqo2ziva)" fill="#1F1F1F">
        <path width="10.9rem" height="2rem" d="M9.629 0c.917 0 1.764.07 2.541.28.777.14 1.415.427 1.983.777.567.35.987.847 1.275 1.484.28.638.428 1.415.428 2.262 0 .987-.21 1.835-.708 2.472-.428.638-1.126 1.205-1.982 1.625 1.205.349 2.122.986 2.681 1.834.559.847.917 1.904.917 3.109 0 .987-.21 1.834-.568 2.541a4.606 4.606 0 0 1-1.554 1.764 7.196 7.196 0 0 1-2.262.987c-.847.21-1.695.35-2.542.35l-9.467.017V0H9.63zM9.06 7.913c.777 0 1.415-.21 1.904-.568.49-.358.707-.987.707-1.764 0-.428-.07-.847-.21-1.127-.139-.28-.348-.498-.637-.707-.28-.14-.567-.28-.917-.35-.35-.07-.707-.07-1.126-.07H4.686v4.594c0-.008 4.375-.008 4.375-.008zm.21 8.34c.428 0 .847-.07 1.205-.14.35-.07.707-.21.987-.427.28-.219.498-.428.707-.778.14-.349.28-.777.28-1.275 0-.987-.28-1.694-.848-2.192-.567-.428-1.344-.638-2.261-.638H4.686v5.441H9.27v.01zM22.912 16.183c.568.568 1.415.847 2.542.847a3.84 3.84 0 0 0 2.052-.567c.568-.428.917-.848 1.057-1.276h3.459c-.568 1.695-1.415 2.9-2.542 3.677-1.127.708-2.472 1.127-4.096 1.127a8.224 8.224 0 0 1-3.04-.568 5.622 5.622 0 0 1-2.261-1.554 5.67 5.67 0 0 1-1.415-2.332c-.35-.917-.498-1.904-.498-3.04 0-1.056.14-2.052.498-2.969a7.703 7.703 0 0 1 1.485-2.402c.637-.637 1.414-1.205 2.262-1.554.916-.35 1.834-.568 2.969-.568 1.205 0 2.262.21 3.179.708.917.497 1.624 1.056 2.192 1.903.568.778.987 1.695 1.275 2.682.14.987.21 1.982.14 3.109H21.925c0 1.153.42 2.21.987 2.777zm4.454-7.423c-.497-.498-1.275-.778-2.192-.778-.637 0-1.126.14-1.554.35-.428.21-.708.497-.987.777-.28.28-.428.637-.498.987s-.14.637-.14.917h6.358c-.14-1.048-.498-1.756-.987-2.253zm-6.218-7.415h7.913v1.904h-7.913V1.345zM37.681 0v7.345h.07c.498-.847 1.127-1.415 1.904-1.764.777-.35 1.485-.568 2.262-.568 1.057 0 1.904.14 2.542.428.637.28 1.205.707 1.554 1.205.35.498.638 1.127.778 1.834.14.708.21 1.485.21 2.402v8.69h-3.887V11.59c0-1.206-.21-2.053-.568-2.612-.358-.559-.978-.856-1.895-.856-1.057 0-1.834.35-2.262.917-.498.638-.708 1.695-.708 3.11v7.423h-3.886V0h3.886zM49.84 7.493c.427-.637.916-1.057 1.554-1.485a6.997 6.997 0 0 1 2.122-.777c.777-.14 1.555-.21 2.332-.21.707 0 1.415.07 2.192.14a5.75 5.75 0 0 1 1.983.568c.637.28 1.056.707 1.484 1.205.35.498.568 1.205.568 2.053v7.423c0 .638.07 1.275.14 1.834.07.568.28 1.057.497 1.345h-3.956c-.14-.14-.21-.428-.28-.637-.07-.21-.07-.498-.07-.708-.637.638-1.344 1.057-2.191 1.345-.847.28-1.695.35-2.542.35-.707 0-1.275-.07-1.904-.28-.567-.14-1.056-.428-1.554-.777a3.918 3.918 0 0 1-1.057-1.345 5.144 5.144 0 0 1-.35-1.904c0-.777.14-1.485.428-1.983.28-.498.638-.917 1.057-1.275.428-.28.987-.568 1.555-.707.568-.14 1.127-.28 1.764-.35l1.694-.21c.568-.069 1.057-.139 1.485-.209.428-.14.777-.28 1.057-.498.28-.21.35-.497.35-.917 0-.428-.07-.777-.21-.987-.14-.21-.35-.427-.568-.567-.21-.14-.498-.21-.777-.28-.28-.07-.638-.07-.987-.07-.777 0-1.345.14-1.764.498-.428.35-.708.917-.778 1.625h-3.886a3.926 3.926 0 0 1 .611-2.21zm7.702 5.511c-.21.07-.498.14-.777.21-.28.07-.568.07-.917.14-.28.07-.638.07-.917.14-.28.069-.568.139-.847.209-.28.07-.568.21-.708.35-.21.139-.35.348-.497.567-.21.28-.21.567-.21.917 0 .35.07.637.21.847.14.21.279.428.497.568.21.14.498.21.778.28.279.069.567.069.917.069.777 0 1.345-.14 1.764-.35.428-.279.707-.567.917-.916.21-.35.35-.708.35-1.057.069-.35.069-.638.069-.847v-1.485c-.21.14-.42.288-.629.358zM67.926 5.37v1.983h.07c.498-.847 1.126-1.414 1.904-1.764.777-.35 1.624-.568 2.401-.568 1.057 0 1.904.14 2.542.428.707.28 1.205.708 1.554 1.206.35.497.638 1.126.848 1.834.14.707.21 1.484.21 2.401v8.69h-3.887v-7.982c0-1.205-.21-2.053-.568-2.611-.35-.568-.987-.917-1.982-.917-1.057 0-1.835.427-2.332 1.056-.498.638-.708 1.695-.708 3.11v7.423h-3.886V5.371h3.834zM86.161 7.912c-.637 0-1.126.14-1.554.428-.428.28-.778.638-1.057 1.127-.28.428-.428.917-.568 1.485-.14.567-.14 1.056-.14 1.624 0 .498.07 1.057.14 1.555.14.567.28.986.568 1.414.28.428.568.778.987 1.057.428.28.917.428 1.554.428.917 0 1.625-.28 2.193-.777.497-.498.847-1.205.916-2.122h3.747c-.28 1.904-.987 3.318-2.192 4.314-1.205.987-2.76 1.485-4.664 1.485a7.494 7.494 0 0 1-2.9-.568c-.916-.35-1.624-.847-2.261-1.485-.638-.637-1.127-1.415-1.485-2.262-.35-.917-.498-1.834-.498-2.9 0-1.126.14-2.121.498-3.039.35-.917.777-1.764 1.415-2.471.638-.708 1.415-1.205 2.262-1.625a8.37 8.37 0 0 1 3.04-.567c.846 0 1.624.14 2.401.349.777.21 1.485.568 2.052.987A4.364 4.364 0 0 1 92.1 8.043c.35.638.568 1.485.638 2.402H88.92c-.148-1.686-1.065-2.533-2.76-2.533zM98.808 16.183c.568.568 1.485.847 2.542.847.777 0 1.485-.21 2.052-.568.568-.427.917-.847 1.057-1.275h3.389c-.568 1.695-1.415 2.9-2.542 3.677-1.127.708-2.471 1.127-4.096 1.127a8.222 8.222 0 0 1-3.04-.568 5.621 5.621 0 0 1-2.261-1.554 5.67 5.67 0 0 1-1.415-2.332c-.35-.917-.498-1.904-.498-3.04 0-1.056.14-2.052.498-2.97a7.547 7.547 0 0 1 1.485-2.4c.637-.638 1.415-1.206 2.262-1.555a8.28 8.28 0 0 1 2.969-.568c1.205 0 2.262.21 3.109.707.917.498 1.625 1.057 2.192 1.904.568.778.987 1.695 1.275 2.681.28.987.35 2.053.28 3.18H97.821c0 1.082.42 2.14.987 2.707zm4.524-7.424c-.497-.497-1.275-.777-2.192-.777a3.41 3.41 0 0 0-1.554.35c-.428.209-.778.497-.987.777-.21.28-.428.637-.498.987-.07.349-.14.637-.14.917h6.358c-.209-1.048-.567-1.756-.987-2.254z"/>
    </g>
    <defs>
        <clipPath id="g8dqo2ziva">
            <path fill="#fff" transform="translate(.371)" d="M0 0h107.721v20H0z"/>
        </clipPath>
    </defs>
</svg>
