<svg width="136" height="42" viewBox="0 0 136 42" fill="current" xmlns="http://www.w3.org/2000/svg">
<rect width="136" height="42" rx="21" fill="#2456F7" />
<path
    d="M35.3818 11.934V28.602H37.6678V11.934H35.3818ZM33.2038 18.36V20.268H35.9758V18.36H33.2038ZM31.6558 12.222V27.81H33.8878V12.222H31.6558ZM24.0418 13.77V23.4H26.4358V13.77H24.0418ZM24.0418 22.5V24.552H25.1938C26.8858 24.552 28.7938 24.462 30.9718 24.066L30.7378 22.014C28.6678 22.41 26.7958 22.5 25.1938 22.5H24.0418ZM48.0901 13.644V14.688C48.0901 16.776 46.9201 18.936 44.1301 19.836L45.3721 21.69C48.5581 20.664 50.0521 17.838 50.0521 14.688V13.644H48.0901ZM48.5761 13.644V14.688C48.5761 17.676 50.0161 20.394 53.1301 21.402L54.3541 19.548C51.6541 18.684 50.5201 16.65 50.5201 14.688V13.644H48.5761ZM44.7781 12.906V14.814H53.7781V12.906H44.7781ZM55.1101 11.934V21.978H57.5041V11.934H55.1101ZM56.8381 15.966V17.928H59.7181V15.966H56.8381ZM46.3801 22.698V24.624H55.1101V28.602H57.5041V22.698H46.3801ZM69.3647 15.606V17.532H73.5407V15.606H69.3647ZM65.5487 12.618C63.0287 12.618 61.1387 14.292 61.1387 16.596C61.1387 18.918 63.0287 20.574 65.5487 20.574C68.0507 20.574 69.9407 18.918 69.9407 16.596C69.9407 14.292 68.0507 12.618 65.5487 12.618ZM65.5487 14.616C66.7727 14.616 67.6547 15.354 67.6547 16.596C67.6547 17.838 66.7727 18.594 65.5487 18.594C64.3247 18.594 63.4247 17.838 63.4247 16.596C63.4247 15.354 64.3247 14.616 65.5487 14.616ZM72.4967 11.934V20.898H74.8907V11.934H72.4967ZM63.8207 21.618V28.422H74.8907V21.618H72.5147V23.202H66.1967V21.618H63.8207ZM66.1967 25.038H72.5147V26.514H66.1967V25.038ZM89.381 22.302C85.781 22.302 83.477 23.49 83.477 25.47C83.477 27.414 85.781 28.602 89.381 28.602C92.981 28.602 95.285 27.414 95.285 25.47C95.285 23.49 92.981 22.302 89.381 22.302ZM89.381 24.102C91.631 24.102 92.909 24.57 92.909 25.47C92.909 26.352 91.631 26.802 89.381 26.802C87.131 26.802 85.853 26.352 85.853 25.47C85.853 24.57 87.131 24.102 89.381 24.102ZM83.657 12.672V14.562H94.205V12.672H83.657ZM81.965 19.368V21.276H96.977V19.368H81.965ZM87.527 16.47V19.854H89.903V16.47H87.527ZM92.819 12.672V14.04C92.819 15.336 92.819 16.542 92.369 18.252L94.745 18.504C95.195 16.776 95.195 15.354 95.195 14.04V12.672H92.819ZM101.89 22.464V28.602H104.338V22.464H101.89ZM107.65 22.464V28.602H110.098V22.464H107.65ZM98.4876 21.204V23.13H113.59V21.204H98.4876ZM105.994 12.492C102.448 12.492 99.9816 13.95 99.9816 16.236C99.9816 18.486 102.448 19.944 105.994 19.944C109.558 19.944 112.024 18.486 112.024 16.236C112.024 13.95 109.558 12.492 105.994 12.492ZM105.994 14.4C108.19 14.4 109.558 15.048 109.558 16.236C109.558 17.406 108.19 18.054 105.994 18.054C103.816 18.054 102.43 17.406 102.43 16.236C102.43 15.048 103.816 14.4 105.994 14.4Z"
    fill="white"
  />
</svg>
