<svg width="14" height="15" viewBox="0 0 14 15" fill="none" xmlns="http://www.w3.org/2000/svg">
<g clip-path="url(#clip0_4817_6675)">
<path d="M5.77565 2.53104C6.17718 2.43678 6.58827 2.38967 7.00065 2.39064C11.084 2.39064 13.4173 7.0706 13.4173 7.0706C13.0632 7.73493 12.6409 8.36036 12.1573 8.93674M8.23732 8.31079C8.07711 8.48322 7.8839 8.62152 7.66924 8.71744C7.45457 8.81336 7.22284 8.86493 6.98787 8.86909C6.7529 8.87325 6.5195 8.8299 6.30159 8.74163C6.08368 8.65337 5.88574 8.52199 5.71956 8.35534C5.55338 8.18869 5.42238 7.99018 5.33436 7.77165C5.24635 7.55313 5.20312 7.31906 5.20727 7.08342C5.21142 6.84778 5.26285 6.61538 5.3585 6.40011C5.45414 6.18483 5.59205 5.99108 5.76398 5.83041M10.4657 10.5455C9.4685 11.3077 8.2543 11.73 7.00065 11.7506C2.91732 11.7506 0.583984 7.0706 0.583984 7.0706C1.30959 5.71452 2.31598 4.52974 3.53565 3.59573L10.4657 10.5455Z" stroke="white" stroke-width="1.13001" stroke-linecap="round" stroke-linejoin="round"/>
<path d="M0.583984 0.635742L13.4173 13.5056" stroke="white" stroke-width="1.13001" stroke-linecap="round" stroke-linejoin="round"/>
</g>
<defs>
<clipPath id="clip0_4817_6675">
<rect width="14" height="14.0399" fill="white" transform="translate(0 0.0507812)"/>
</clipPath>
</defs>
</svg>
