<svg width="162" height="51" viewBox="0 0 162 51" fill="none" xmlns="http://www.w3.org/2000/svg">
<g filter="url(#filter0_d_226_32337)">
<rect x="4" y="6" width="154" height="37" rx="5" fill="white"/>
<path d="M146 0L156.392 11.25H135.608L146 0Z" fill="white"/>
<path d="M24.184 18.968V27.428H25.78V18.968H24.184ZM22.732 21.716V22.988H24.784V21.716H22.732ZM22.732 24.104V25.364H24.784V24.104H22.732ZM16.516 20.12V21.368H22.612V20.12H16.516ZM19.636 21.764C18.124 21.764 17.032 22.664 17.032 23.948C17.032 25.232 18.124 26.132 19.636 26.132C21.148 26.132 22.24 25.232 22.24 23.948C22.24 22.664 21.148 21.764 19.636 21.764ZM19.636 22.988C20.284 22.988 20.74 23.336 20.74 23.948C20.74 24.572 20.284 24.908 19.636 24.908C18.988 24.908 18.532 24.572 18.532 23.948C18.532 23.336 18.988 22.988 19.636 22.988ZM18.844 18.932V20.888H20.44V18.932H18.844ZM18.424 28.604V29.876H26.02V28.604H18.424ZM18.424 26.732V29.192H20.032V26.732H18.424ZM35.6311 18.956V30.068H37.1431V18.956H35.6311ZM34.2991 23.216V24.512H36.1471V23.216H34.2991ZM33.2431 19.124V29.564H34.7311V19.124H33.2431ZM29.4991 20.684V21.668C29.4991 23.804 28.9711 25.772 27.3031 26.732L28.2631 27.956C30.1111 26.84 30.7111 24.416 30.7111 21.668V20.684H29.4991ZM29.8231 20.684V21.668C29.8231 24.248 30.4831 26.54 32.3551 27.548L33.2671 26.336C31.6111 25.472 31.0471 23.624 31.0471 21.668V20.684H29.8231ZM27.6631 20.084V21.368H32.7151V20.084H27.6631ZM49.5884 18.956V30.068H51.1124V18.956H49.5884ZM46.3364 23V24.404H47.8244V23H46.3364ZM47.3804 19.172V29.552H48.8804V19.172H47.3804ZM41.5484 20.204V21.476H46.6004V20.204H41.5484ZM41.5244 27.548C42.8924 27.548 45.1484 27.512 46.8764 27.14L46.7684 25.988C45.0884 26.216 42.7484 26.252 41.3564 26.252L41.5244 27.548ZM42.2324 21.02V26.588H43.6604V21.02H42.2324ZM44.4644 21.02V26.588H45.9044V21.02H44.4644ZM60.1234 18.944V30.092H61.7314V18.944H60.1234ZM55.7434 19.724C54.0634 19.724 52.8274 21.26 52.8274 23.684C52.8274 26.132 54.0634 27.668 55.7434 27.668C57.4234 27.668 58.6594 26.132 58.6594 23.684C58.6594 21.26 57.4234 19.724 55.7434 19.724ZM55.7434 21.176C56.5714 21.176 57.1234 22.052 57.1234 23.684C57.1234 25.34 56.5714 26.228 55.7434 26.228C54.9154 26.228 54.3514 25.34 54.3514 23.684C54.3514 22.052 54.9154 21.176 55.7434 21.176ZM66.2185 20.708V21.956C66.2185 23.84 65.3185 25.892 63.4585 26.72L64.3585 27.98C66.4465 27.032 67.4905 24.524 67.4905 21.956V20.708H66.2185ZM66.5785 20.708V21.956C66.5785 24.428 67.6105 26.792 69.7225 27.704L70.5865 26.444C68.7265 25.676 67.8385 23.756 67.8385 21.956V20.708H66.5785ZM63.9025 20.024V21.332H70.1305V20.024H63.9025ZM71.1625 18.956V30.068H72.7705V18.956H71.1625ZM77.0776 24.584V27.212H78.6736V24.584H77.0776ZM77.8576 19.604C76.1296 19.604 74.8336 20.744 74.8336 22.34C74.8336 23.936 76.1296 25.076 77.8576 25.076C79.5736 25.076 80.8816 23.936 80.8816 22.34C80.8816 20.744 79.5736 19.604 77.8576 19.604ZM77.8576 20.96C78.6976 20.96 79.3216 21.464 79.3216 22.34C79.3216 23.204 78.6976 23.72 77.8576 23.72C77.0176 23.72 76.3936 23.204 76.3936 22.34C76.3936 21.464 77.0176 20.96 77.8576 20.96ZM81.7576 18.956V30.068H83.3536V18.956H81.7576ZM82.8616 23.3V24.632H84.8176V23.3H82.8616ZM74.6536 27.86C76.5256 27.872 78.9976 27.872 81.3016 27.44L81.1816 26.276C78.9736 26.576 76.3816 26.564 74.4616 26.576L74.6536 27.86ZM90.7949 25.976V30.068H92.4269V25.976H90.7949ZM94.6349 25.976V30.068H96.2669V25.976H94.6349ZM88.5269 25.136V26.42H98.5949V25.136H88.5269ZM93.5309 19.328C91.1669 19.328 89.5229 20.3 89.5229 21.824C89.5229 23.324 91.1669 24.296 93.5309 24.296C95.9069 24.296 97.5509 23.324 97.5509 21.824C97.5509 20.3 95.9069 19.328 93.5309 19.328ZM93.5309 20.6C94.9949 20.6 95.9069 21.032 95.9069 21.824C95.9069 22.604 94.9949 23.036 93.5309 23.036C92.0789 23.036 91.1549 22.604 91.1549 21.824C91.1549 21.032 92.0789 20.6 93.5309 20.6ZM102.062 19.808V21.428C102.062 23.492 101.21 25.628 99.3379 26.504L100.298 27.788C102.398 26.756 103.358 24.176 103.358 21.428V19.808H102.062ZM102.386 19.808V21.428C102.386 24.092 103.262 26.564 105.266 27.584L106.226 26.312C104.45 25.448 103.658 23.42 103.658 21.428V19.808H102.386ZM106.67 18.956V30.068H108.278V18.956H106.67ZM107.918 23.228V24.56H109.886V23.228H107.918ZM117.757 18.968V27.272H119.353V18.968H117.757ZM118.897 22.352V23.66H120.829V22.352H118.897ZM110.605 20.12V21.368H117.145V20.12H110.605ZM113.881 21.764C112.273 21.764 111.145 22.64 111.145 23.912C111.145 25.184 112.273 26.048 113.881 26.048C115.477 26.048 116.605 25.184 116.605 23.912C116.605 22.64 115.477 21.764 113.881 21.764ZM113.881 22.976C114.589 22.976 115.081 23.312 115.081 23.912C115.081 24.512 114.589 24.836 113.881 24.836C113.173 24.836 112.681 24.512 112.681 23.912C112.681 23.312 113.173 22.976 113.881 22.976ZM113.077 18.944V20.732H114.673V18.944H113.077ZM112.189 28.604V29.876H119.749V28.604H112.189ZM112.189 26.648V29.156H113.785V26.648H112.189ZM131.702 18.956V26H133.298V18.956H131.702ZM132.854 21.788V23.096H134.774V21.788H132.854ZM129.686 26.12C127.394 26.12 125.954 26.852 125.954 28.1C125.954 29.336 127.394 30.068 129.686 30.068C131.978 30.068 133.418 29.336 133.418 28.1C133.418 26.852 131.978 26.12 129.686 26.12ZM129.686 27.32C131.09 27.32 131.834 27.572 131.834 28.1C131.834 28.628 131.09 28.88 129.686 28.88C128.282 28.88 127.538 28.628 127.538 28.1C127.538 27.572 128.282 27.32 129.686 27.32ZM124.55 20.012V21.248H131.09V20.012H124.55ZM127.826 21.62C126.206 21.62 125.09 22.424 125.09 23.612C125.09 24.812 126.206 25.604 127.826 25.604C129.434 25.604 130.55 24.812 130.55 23.612C130.55 22.424 129.434 21.62 127.826 21.62ZM127.826 22.784C128.534 22.784 129.026 23.072 129.026 23.612C129.026 24.152 128.534 24.44 127.826 24.44C127.106 24.44 126.626 24.152 126.626 23.612C126.626 23.072 127.106 22.784 127.826 22.784ZM127.022 18.884V20.672H128.618V18.884H127.022ZM136.825 19.388V23.324H144.373V19.388H136.825ZM142.801 20.636V22.076H138.385V20.636H142.801ZM135.589 24.368V25.628H145.633V24.368H135.589ZM139.801 23.036V24.728H141.397V23.036H139.801ZM136.705 26.432V27.692H142.825V30.068H144.421V26.432H136.705Z" fill="black"/>
</g>
<defs>
<filter id="filter0_d_226_32337" x="0" y="0" width="162" height="51" filterUnits="userSpaceOnUse" color-interpolation-filters="sRGB">
<feFlood flood-opacity="0" result="BackgroundImageFix"/>
<feColorMatrix in="SourceAlpha" type="matrix" values="0 0 0 0 0 0 0 0 0 0 0 0 0 0 0 0 0 0 127 0" result="hardAlpha"/>
<feOffset dy="4"/>
<feGaussianBlur stdDeviation="2"/>
<feComposite in2="hardAlpha" operator="out"/>
<feColorMatrix type="matrix" values="0 0 0 0 0 0 0 0 0 0 0 0 0 0 0 0 0 0 0.25 0"/>
<feBlend mode="normal" in2="BackgroundImageFix" result="effect1_dropShadow_226_32337"/>
<feBlend mode="normal" in="SourceGraphic" in2="effect1_dropShadow_226_32337" result="shape"/>
</filter>
</defs>
</svg>
