<svg width="24" height="24" viewBox="0 0 24 24" fill="none" xmlns="http://www.w3.org/2000/svg">
    <path d="M12 13c-1.1 0-2.042-.392-2.825-1.175C8.392 11.042 8 10.1 8 9V5.5c0-.417.146-.77.438-1.063A1.447 1.447 0 0 1 9.5 4c.25 0 .488.058.713.175.225.117.404.283.537.5a1.35 1.35 0 0 1 .537-.5C11.512 4.058 11.75 4 12 4c.25 0 .488.058.713.175.225.117.404.283.537.5a1.35 1.35 0 0 1 .537-.5c.225-.117.463-.175.713-.175.417 0 .77.146 1.063.438.291.291.437.645.437 1.062V9c0 1.1-.392 2.042-1.175 2.825C14.042 12.608 13.1 13 12 13zm-8 8v-2.35c0-.633.158-1.175.475-1.625A3.05 3.05 0 0 1 5.7 16c1.117-.5 2.188-.875 3.212-1.125A12.987 12.987 0 0 1 12 14.5c1.033 0 2.058.13 3.075.387 1.017.259 2.083.63 3.2 1.113.517.233.933.575 1.25 1.025.317.45.475.992.475 1.625V21H4z" fill="#000"/>
</svg>
