<svg width="1163" height="426" viewBox="0 0 1163 426" fill="none" xmlns="http://www.w3.org/2000/svg">
<g filter="url(#filter0_d_226_29589)">
<rect x="10" y="6" width="1143" height="406" rx="5" fill="white"/>
</g>
<path d="M57.14 139.46V149.435H59.15V139.46H57.14ZM49.895 151.505V153.095H59.495V151.505H49.895ZM49.895 148.43V152.15H51.89V148.43H49.895ZM51.59 140.33C49.46 140.33 47.81 141.8 47.81 143.855C47.81 145.895 49.46 147.38 51.59 147.38C53.72 147.38 55.355 145.895 55.355 143.855C55.355 141.8 53.72 140.33 51.59 140.33ZM51.59 142.055C52.61 142.055 53.405 142.715 53.405 143.855C53.405 144.98 52.61 145.64 51.59 145.64C50.555 145.64 49.76 144.98 49.76 143.855C49.76 142.715 50.555 142.055 51.59 142.055ZM70.9688 139.445V153.335H72.9788V139.445H70.9688ZM66.8738 140.885V141.245C66.8738 144.965 65.4338 147.485 61.4438 149.405L62.4788 150.995C67.4138 148.61 68.8538 145.13 68.8538 140.885H66.8738ZM62.1788 140.885V142.46H67.8188V140.885H62.1788ZM78.9041 150.095V151.73H91.4741V150.095H78.9041ZM79.8641 140.645V142.235H90.4391V140.645H79.8641ZM79.9241 146.39V147.995H90.3941V146.39H79.9241ZM81.7541 142.115V146.54H83.7491V142.115H81.7541ZM86.5691 142.115V146.54H88.5491V142.115H86.5691ZM92.7029 150.185V151.805H105.273V150.185H92.7029ZM97.9679 147.56V150.845H99.9629V147.56H97.9679ZM94.1129 140.345V141.92H101.883V143.405H94.1429V147.305H96.1229V144.965H103.863V140.345H94.1129ZM94.1429 146.51V148.115H104.178V146.51H94.1429ZM112.232 142.88V144.485H114.407V142.88H112.232ZM113.717 139.715V147.845H115.577V139.715H113.717ZM108.932 141.53V142.415C108.932 143.96 108.167 145.535 106.307 146.27L107.312 147.815C109.562 146.915 110.477 144.74 110.477 142.415V141.53H108.932ZM109.307 141.53V142.415C109.307 144.65 110.162 146.72 112.337 147.56L113.312 146.03C111.572 145.34 110.852 143.9 110.852 142.415V141.53H109.307ZM106.742 140.435V142.025H112.877V140.435H106.742ZM116.432 139.445V147.905H118.322V139.445H116.432ZM108.782 148.415V150.005H116.342V153.335H118.322V148.415H108.782ZM121.771 146.6V148.16H131.536V146.6H121.771ZM120.301 150.125V151.745H132.871V150.125H120.301ZM121.771 140.45V147.035H123.796V142.055H131.416V140.45H121.771ZM123.181 143.51V145.055H131.101V143.51H123.181Z" fill="#313131"/>
<path d="M51.155 47.99V50.855H53.165V47.99H51.155ZM51.14 43.04V43.355C51.14 44.84 50.165 46.295 47.945 46.88L48.845 48.41C51.485 47.705 52.73 45.68 52.73 43.355V43.04H51.14ZM51.56 43.04V43.355C51.56 45.62 52.85 47.615 55.49 48.29L56.375 46.76C54.17 46.19 53.165 44.78 53.165 43.355V43.04H51.56ZM48.365 42.08V43.655H55.97V42.08H48.365ZM51.155 40.565V42.77H53.165V40.565H51.155ZM57.2 40.43V54.365H59.195V40.43H57.2ZM47.9 51.785C50.3 51.77 53.57 51.74 56.585 51.155L56.435 49.7C53.51 50.135 50.09 50.165 47.66 50.165L47.9 51.785ZM62.9438 41.21V42.8H71.7188V41.21H62.9438ZM61.4138 46.58V48.185H73.9838V46.58H61.4138ZM70.5488 41.21V42.41C70.5488 43.7 70.5488 45.08 70.1138 47.015L72.0788 47.195C72.5138 45.2 72.5138 43.73 72.5138 42.41V41.21H70.5488ZM62.9888 52.49V54.095H72.9038V52.49H62.9888ZM62.9888 49.37V52.655H64.9688V49.37H62.9888ZM83.9591 41.24V42.185C83.9591 44.315 82.2641 46.085 78.9491 46.985L79.7291 48.53C83.7941 47.42 86.0441 44.9 86.0441 41.24H83.9591ZM79.7141 41.24V42.815H85.3391V41.24H79.7141ZM88.5191 40.445V48.215H90.5141V40.445H88.5191ZM86.1191 43.73V45.35H88.8041V43.73H86.1191ZM81.3641 48.77V54.185H90.5141V48.77H81.3641ZM88.5491 50.345V52.61H83.3291V50.345H88.5491ZM95.1929 41.24V42.83C95.1929 44.405 94.4279 46.13 92.4929 46.985L93.5429 48.53C95.8079 47.555 96.7529 45.2 96.7529 42.83V41.24H95.1929ZM95.5529 41.24V42.83C95.5529 45.14 96.4679 47.27 98.6279 48.155L99.6779 46.64C97.8479 45.875 97.1129 44.375 97.1129 42.83V41.24H95.5529ZM102.633 40.46V48.875H104.523V40.46H102.633ZM100.968 43.82V45.44H103.173V43.82H100.968ZM99.6929 40.67V48.8H101.553V40.67H99.6929ZM94.9829 49.475V51.065H102.543V54.335H104.523V49.475H94.9829Z" fill="#313131"/>
<path d="M57.14 314.46V324.435H59.15V314.46H57.14ZM49.895 326.505V328.095H59.495V326.505H49.895ZM49.895 323.43V327.15H51.89V323.43H49.895ZM51.59 315.33C49.46 315.33 47.81 316.8 47.81 318.855C47.81 320.895 49.46 322.38 51.59 322.38C53.72 322.38 55.355 320.895 55.355 318.855C55.355 316.8 53.72 315.33 51.59 315.33ZM51.59 317.055C52.61 317.055 53.405 317.715 53.405 318.855C53.405 319.98 52.61 320.64 51.59 320.64C50.555 320.64 49.76 319.98 49.76 318.855C49.76 317.715 50.555 317.055 51.59 317.055ZM70.9688 314.445V328.335H72.9788V314.445H70.9688ZM66.8738 315.885V316.245C66.8738 319.965 65.4338 322.485 61.4438 324.405L62.4788 325.995C67.4138 323.61 68.8538 320.13 68.8538 315.885H66.8738ZM62.1788 315.885V317.46H67.8188V315.885H62.1788ZM84.4841 315.78V316.02C84.4841 319.95 83.2691 322.62 78.9941 324.75L80.0441 326.295C85.2641 323.7 86.4041 320.055 86.4041 315.78H84.4841ZM79.8191 315.78V317.355H85.4591V315.78H79.8191ZM84.4541 319.185L79.1141 319.485L79.3691 321.165L84.4541 320.715V319.185ZM88.4591 314.445V328.335H90.4691V314.445H88.4591ZM96.0479 322.275V327.915H98.0429V322.275H96.0479ZM102.453 314.445V328.335H104.463V314.445H102.453ZM92.8829 323.115C95.4179 323.115 98.6579 323.07 101.688 322.53L101.583 321.075C98.6279 321.48 95.2229 321.495 92.6429 321.495L92.8829 323.115ZM99.6779 323.79V325.29H102.858V323.79H99.6779ZM97.1429 315.015C95.0729 315.015 93.6029 316.185 93.6029 317.865C93.6029 319.56 95.0729 320.715 97.1429 320.715C99.1829 320.715 100.668 319.56 100.668 317.865C100.668 316.185 99.1829 315.015 97.1429 315.015ZM97.1429 316.515C98.1029 316.515 98.7929 317.025 98.7929 317.865C98.7929 318.72 98.1029 319.2 97.1429 319.2C96.1529 319.2 95.4629 318.72 95.4629 317.865C95.4629 317.025 96.1529 316.515 97.1429 316.515ZM107.957 320.85V322.44H117.722V320.85H107.957ZM106.502 325.035V326.67H119.072V325.035H106.502ZM107.957 315.585V321.51H109.937V317.205H117.617V315.585H107.957Z" fill="#313131"/>
<rect x="47.5" y="70.5" width="130" height="31" rx="15.5" fill="white" stroke="#D6D6D6"/>
<rect x="47.5" y="344.5" width="99" height="31" rx="15.5" fill="white" stroke="#D6D6D6"/>
<rect x="158.5" y="344.5" width="99" height="31" rx="15.5" fill="white" stroke="#D6D6D6"/>
<rect x="269.5" y="344.5" width="99" height="31" rx="15.5" fill="white" stroke="#D6D6D6"/>
<rect x="380.5" y="344.5" width="99" height="31" rx="15.5" fill="white" stroke="#D6D6D6"/>
<rect x="491.5" y="344.5" width="99" height="31" rx="15.5" fill="white" stroke="#D6D6D6"/>
<rect x="602.5" y="344.5" width="99" height="31" rx="15.5" fill="white" stroke="#D6D6D6"/>
<rect x="187.5" y="70.5" width="130" height="31" rx="15.5" fill="white" stroke="#D6D6D6"/>
<rect x="327.5" y="70.5" width="130" height="31" rx="15.5" fill="white" stroke="#D6D6D6"/>
<rect x="467.5" y="70.5" width="130" height="31" rx="15.5" fill="white" stroke="#D6D6D6"/>
<rect x="607.5" y="70.5" width="130" height="31" rx="15.5" fill="white" stroke="#D6D6D6"/>
<rect x="747.5" y="70.5" width="130" height="31" rx="15.5" fill="white" stroke="#D6D6D6"/>
<path d="M63.794 80.51V81.381H71.36V80.51H63.794ZM62.65 88.401V89.298H73.271V88.401H62.65ZM70.788 80.51V81.68C70.788 83.136 70.788 84.891 70.32 87.296L71.399 87.4C71.841 84.865 71.841 83.188 71.841 81.68V80.51H70.788ZM74.986 87.309V88.206H75.766C77.222 88.206 78.548 88.167 80.173 87.881L80.082 86.984C78.496 87.257 77.196 87.309 75.766 87.309H74.986ZM74.96 80.536V81.42H78.314V83.786H74.986V87.647H76.039V84.67H79.367V80.536H74.96ZM83.54 79.262V91.014H84.58V79.262H83.54ZM81.551 83.903V84.787H83.813V83.903H81.551ZM80.875 79.522V90.416H81.889V79.522H80.875ZM87.088 80.211V81.095H93.393V80.211H87.088ZM86.893 85.684C88.908 85.684 91.651 85.645 94.043 85.268L93.952 84.462C91.625 84.748 88.817 84.774 86.763 84.774L86.893 85.684ZM88.245 80.835V85.086H89.285V80.835H88.245ZM91.183 80.835V85.086H92.236V80.835H91.183ZM88.349 86.971V87.855H95.109V91.014H96.201V86.971H88.349ZM95.109 79.262V86.386H96.201V79.262H95.109ZM110.343 79.262V91.04H111.422V79.262H110.343ZM102.569 87.205V88.115H103.518C105.884 88.115 107.418 88.05 109.212 87.712L109.095 86.802C107.353 87.127 105.845 87.205 103.518 87.205H102.569ZM102.569 80.38V87.543H103.635V81.277H108.12V80.38H102.569ZM116.673 80.939V82.85C116.673 84.839 115.256 87.075 113.579 87.894L114.203 88.752C116.036 87.816 117.531 85.294 117.531 82.85V80.939H116.673ZM116.868 80.939V82.85C116.868 85.177 118.285 87.543 120.144 88.466L120.755 87.608C119.052 86.802 117.726 84.709 117.726 82.85V80.939H116.868ZM113.995 80.458V81.368H120.326V80.458H113.995ZM121.717 79.262V91.014H122.809V79.262H121.717ZM122.549 84.007V84.917H124.733V84.007H122.549ZM134.274 79.275V87.855H135.366V79.275H134.274ZM127.813 89.87V90.754H135.717V89.87H127.813ZM127.813 86.971V90.169H128.879V86.971H127.813ZM129.061 80.081C127.306 80.081 125.993 81.277 125.993 82.98C125.993 84.67 127.306 85.879 129.061 85.879C130.816 85.879 132.116 84.67 132.116 82.98C132.116 81.277 130.816 80.081 129.061 80.081ZM129.061 81.017C130.205 81.017 131.076 81.823 131.076 82.98C131.076 84.124 130.205 84.93 129.061 84.93C127.917 84.93 127.046 84.124 127.046 82.98C127.046 81.823 127.917 81.017 129.061 81.017Z" fill="#313131"/>
<path d="M67.775 355.706C67.775 357.149 67.775 358.891 67.307 361.27L68.373 361.387C68.828 358.865 68.828 357.188 68.828 355.706V354.536H60.833V355.407H67.775V355.706ZM59.702 362.375V363.259H70.245V362.375H59.702ZM73.065 358.67H76.38V354.575H71.999V355.446H75.34V357.799H72.038V362.167H72.805C74.248 362.167 75.561 362.115 77.173 361.842L77.095 360.958C75.613 361.218 74.391 361.27 73.065 361.283V358.67ZM80.527 353.301V357.903H78.876V353.561H77.875V364.364H78.876V358.774H80.527V364.949H81.554V353.301H80.527ZM86.311 355.121H88.209V358.67C87.572 358.709 86.935 358.722 86.311 358.735V355.121ZM90.952 358.462C90.393 358.527 89.821 358.566 89.236 358.618V355.121H90.38V354.25H84.127V355.121H85.271V358.761C84.764 358.761 84.257 358.761 83.815 358.761L83.919 359.658C85.934 359.658 88.664 359.619 91.017 359.255L90.952 358.462ZM85.375 361.829H92.109V364.975H93.175V360.958H85.375V361.829ZM92.109 353.314V360.373H93.175V353.314H92.109ZM100.661 355.303H105.12V354.406H99.608V362.089H100.544C102.897 362.089 104.418 362.011 106.212 361.686L106.095 360.789C104.379 361.114 102.91 361.179 100.661 361.179V355.303ZM107.33 353.301V364.988H108.396V353.301H107.33ZM114.739 355.381H117.326V354.497H111.021V355.381H113.686V356.863C113.686 358.839 112.282 361.049 110.618 361.881L111.242 362.726C112.555 362.05 113.686 360.568 114.219 358.865C114.752 360.425 115.844 361.79 117.144 362.44L117.755 361.582C116.065 360.789 114.739 358.722 114.739 356.863V355.381ZM121.707 358.007H119.783V353.314H118.717V364.962H119.783V358.904H121.707V358.007ZM132.34 353.314H131.274V361.829H132.34V353.314ZM124.085 356.98C124.085 355.849 124.943 355.043 126.074 355.043C127.231 355.043 128.089 355.849 128.089 356.98C128.089 358.137 127.231 358.943 126.074 358.943C124.943 358.943 124.085 358.137 124.085 356.98ZM129.129 356.98C129.129 355.303 127.816 354.12 126.074 354.12C124.345 354.12 123.045 355.303 123.045 356.98C123.045 358.67 124.345 359.866 126.074 359.866C127.816 359.866 129.129 358.67 129.129 356.98ZM125.905 363.831V360.958H124.839V364.702H132.691V363.831H125.905Z" fill="#313131"/>
<path d="M178.775 355.706C178.775 357.149 178.775 358.891 178.307 361.27L179.373 361.387C179.828 358.865 179.828 357.188 179.828 355.706V354.536H171.833V355.407H178.775V355.706ZM170.702 362.375V363.259H181.245V362.375H170.702ZM184.065 358.67H187.38V354.575H182.999V355.446H186.34V357.799H183.038V362.167H183.805C185.248 362.167 186.561 362.115 188.173 361.842L188.095 360.958C186.613 361.218 185.391 361.27 184.065 361.283V358.67ZM191.527 353.301V357.903H189.876V353.561H188.875V364.364H189.876V358.774H191.527V364.949H192.554V353.301H191.527ZM197.311 355.121H199.209V358.67C198.572 358.709 197.935 358.722 197.311 358.735V355.121ZM201.952 358.462C201.393 358.527 200.821 358.566 200.236 358.618V355.121H201.38V354.25H195.127V355.121H196.271V358.761C195.764 358.761 195.257 358.761 194.815 358.761L194.919 359.658C196.934 359.658 199.664 359.619 202.017 359.255L201.952 358.462ZM196.375 361.829H203.109V364.975H204.175V360.958H196.375V361.829ZM203.109 353.314V360.373H204.175V353.314H203.109ZM211.661 355.303H216.12V354.406H210.608V362.089H211.544C213.897 362.089 215.418 362.011 217.212 361.686L217.095 360.789C215.379 361.114 213.91 361.179 211.661 361.179V355.303ZM218.33 353.301V364.988H219.396V353.301H218.33ZM225.739 355.381H228.326V354.497H222.021V355.381H224.686V356.863C224.686 358.839 223.282 361.049 221.618 361.881L222.242 362.726C223.555 362.05 224.686 360.568 225.219 358.865C225.752 360.425 226.844 361.79 228.144 362.44L228.755 361.582C227.065 360.789 225.739 358.722 225.739 356.863V355.381ZM232.707 358.007H230.783V353.314H229.717V364.962H230.783V358.904H232.707V358.007ZM243.34 353.314H242.274V361.829H243.34V353.314ZM235.085 356.98C235.085 355.849 235.943 355.043 237.074 355.043C238.231 355.043 239.089 355.849 239.089 356.98C239.089 358.137 238.231 358.943 237.074 358.943C235.943 358.943 235.085 358.137 235.085 356.98ZM240.129 356.98C240.129 355.303 238.816 354.12 237.074 354.12C235.345 354.12 234.045 355.303 234.045 356.98C234.045 358.67 235.345 359.866 237.074 359.866C238.816 359.866 240.129 358.67 240.129 356.98ZM236.905 363.831V360.958H235.839V364.702H243.691V363.831H236.905Z" fill="#313131"/>
<path d="M282.794 354.51V355.381H290.36V354.51H282.794ZM281.65 362.401V363.298H292.271V362.401H281.65ZM289.788 354.51V355.68C289.788 357.136 289.788 358.891 289.32 361.296L290.399 361.4C290.841 358.865 290.841 357.188 290.841 355.68V354.51H289.788ZM293.986 361.309V362.206H294.766C296.222 362.206 297.548 362.167 299.173 361.881L299.082 360.984C297.496 361.257 296.196 361.309 294.766 361.309H293.986ZM293.96 354.536V355.42H297.314V357.786H293.986V361.647H295.039V358.67H298.367V354.536H293.96ZM302.54 353.262V365.014H303.58V353.262H302.54ZM300.551 357.903V358.787H302.813V357.903H300.551ZM299.875 353.522V364.416H300.889V353.522H299.875ZM306.088 354.211V355.095H312.393V354.211H306.088ZM305.893 359.684C307.908 359.684 310.651 359.645 313.043 359.268L312.952 358.462C310.625 358.748 307.817 358.774 305.763 358.774L305.893 359.684ZM307.245 354.835V359.086H308.285V354.835H307.245ZM310.183 354.835V359.086H311.236V354.835H310.183ZM307.349 360.971V361.855H314.109V365.014H315.201V360.971H307.349ZM314.109 353.262V360.386H315.201V353.262H314.109ZM329.343 353.262V365.04H330.422V353.262H329.343ZM321.569 361.205V362.115H322.518C324.884 362.115 326.418 362.05 328.212 361.712L328.095 360.802C326.353 361.127 324.845 361.205 322.518 361.205H321.569ZM321.569 354.38V361.543H322.635V355.277H327.12V354.38H321.569ZM335.673 354.939V356.85C335.673 358.839 334.256 361.075 332.579 361.894L333.203 362.752C335.036 361.816 336.531 359.294 336.531 356.85V354.939H335.673ZM335.868 354.939V356.85C335.868 359.177 337.285 361.543 339.144 362.466L339.755 361.608C338.052 360.802 336.726 358.709 336.726 356.85V354.939H335.868ZM332.995 354.458V355.368H339.326V354.458H332.995ZM340.717 353.262V365.014H341.809V353.262H340.717ZM341.549 358.007V358.917H343.733V358.007H341.549ZM353.274 353.275V361.855H354.366V353.275H353.274ZM346.813 363.87V364.754H354.717V363.87H346.813ZM346.813 360.971V364.169H347.879V360.971H346.813ZM348.061 354.081C346.306 354.081 344.993 355.277 344.993 356.98C344.993 358.67 346.306 359.879 348.061 359.879C349.816 359.879 351.116 358.67 351.116 356.98C351.116 355.277 349.816 354.081 348.061 354.081ZM348.061 355.017C349.205 355.017 350.076 355.823 350.076 356.98C350.076 358.124 349.205 358.93 348.061 358.93C346.917 358.93 346.046 358.124 346.046 356.98C346.046 355.823 346.917 355.017 348.061 355.017Z" fill="#313131"/>
<path d="M393.794 354.51V355.381H401.36V354.51H393.794ZM392.65 362.401V363.298H403.271V362.401H392.65ZM400.788 354.51V355.68C400.788 357.136 400.788 358.891 400.32 361.296L401.399 361.4C401.841 358.865 401.841 357.188 401.841 355.68V354.51H400.788ZM404.986 361.309V362.206H405.766C407.222 362.206 408.548 362.167 410.173 361.881L410.082 360.984C408.496 361.257 407.196 361.309 405.766 361.309H404.986ZM404.96 354.536V355.42H408.314V357.786H404.986V361.647H406.039V358.67H409.367V354.536H404.96ZM413.54 353.262V365.014H414.58V353.262H413.54ZM411.551 357.903V358.787H413.813V357.903H411.551ZM410.875 353.522V364.416H411.889V353.522H410.875ZM417.088 354.211V355.095H423.393V354.211H417.088ZM416.893 359.684C418.908 359.684 421.651 359.645 424.043 359.268L423.952 358.462C421.625 358.748 418.817 358.774 416.763 358.774L416.893 359.684ZM418.245 354.835V359.086H419.285V354.835H418.245ZM421.183 354.835V359.086H422.236V354.835H421.183ZM418.349 360.971V361.855H425.109V365.014H426.201V360.971H418.349ZM425.109 353.262V360.386H426.201V353.262H425.109ZM440.343 353.262V365.04H441.422V353.262H440.343ZM432.569 361.205V362.115H433.518C435.884 362.115 437.418 362.05 439.212 361.712L439.095 360.802C437.353 361.127 435.845 361.205 433.518 361.205H432.569ZM432.569 354.38V361.543H433.635V355.277H438.12V354.38H432.569ZM446.673 354.939V356.85C446.673 358.839 445.256 361.075 443.579 361.894L444.203 362.752C446.036 361.816 447.531 359.294 447.531 356.85V354.939H446.673ZM446.868 354.939V356.85C446.868 359.177 448.285 361.543 450.144 362.466L450.755 361.608C449.052 360.802 447.726 358.709 447.726 356.85V354.939H446.868ZM443.995 354.458V355.368H450.326V354.458H443.995ZM451.717 353.262V365.014H452.809V353.262H451.717ZM452.549 358.007V358.917H454.733V358.007H452.549ZM464.274 353.275V361.855H465.366V353.275H464.274ZM457.813 363.87V364.754H465.717V363.87H457.813ZM457.813 360.971V364.169H458.879V360.971H457.813ZM459.061 354.081C457.306 354.081 455.993 355.277 455.993 356.98C455.993 358.67 457.306 359.879 459.061 359.879C460.816 359.879 462.116 358.67 462.116 356.98C462.116 355.277 460.816 354.081 459.061 354.081ZM459.061 355.017C460.205 355.017 461.076 355.823 461.076 356.98C461.076 358.124 460.205 358.93 459.061 358.93C457.917 358.93 457.046 358.124 457.046 356.98C457.046 355.823 457.917 355.017 459.061 355.017Z" fill="#313131"/>
<path d="M504.794 354.51V355.381H512.36V354.51H504.794ZM503.65 362.401V363.298H514.271V362.401H503.65ZM511.788 354.51V355.68C511.788 357.136 511.788 358.891 511.32 361.296L512.399 361.4C512.841 358.865 512.841 357.188 512.841 355.68V354.51H511.788ZM515.986 361.309V362.206H516.766C518.222 362.206 519.548 362.167 521.173 361.881L521.082 360.984C519.496 361.257 518.196 361.309 516.766 361.309H515.986ZM515.96 354.536V355.42H519.314V357.786H515.986V361.647H517.039V358.67H520.367V354.536H515.96ZM524.54 353.262V365.014H525.58V353.262H524.54ZM522.551 357.903V358.787H524.813V357.903H522.551ZM521.875 353.522V364.416H522.889V353.522H521.875ZM528.088 354.211V355.095H534.393V354.211H528.088ZM527.893 359.684C529.908 359.684 532.651 359.645 535.043 359.268L534.952 358.462C532.625 358.748 529.817 358.774 527.763 358.774L527.893 359.684ZM529.245 354.835V359.086H530.285V354.835H529.245ZM532.183 354.835V359.086H533.236V354.835H532.183ZM529.349 360.971V361.855H536.109V365.014H537.201V360.971H529.349ZM536.109 353.262V360.386H537.201V353.262H536.109ZM551.343 353.262V365.04H552.422V353.262H551.343ZM543.569 361.205V362.115H544.518C546.884 362.115 548.418 362.05 550.212 361.712L550.095 360.802C548.353 361.127 546.845 361.205 544.518 361.205H543.569ZM543.569 354.38V361.543H544.635V355.277H549.12V354.38H543.569ZM557.673 354.939V356.85C557.673 358.839 556.256 361.075 554.579 361.894L555.203 362.752C557.036 361.816 558.531 359.294 558.531 356.85V354.939H557.673ZM557.868 354.939V356.85C557.868 359.177 559.285 361.543 561.144 362.466L561.755 361.608C560.052 360.802 558.726 358.709 558.726 356.85V354.939H557.868ZM554.995 354.458V355.368H561.326V354.458H554.995ZM562.717 353.262V365.014H563.809V353.262H562.717ZM563.549 358.007V358.917H565.733V358.007H563.549ZM575.274 353.275V361.855H576.366V353.275H575.274ZM568.813 363.87V364.754H576.717V363.87H568.813ZM568.813 360.971V364.169H569.879V360.971H568.813ZM570.061 354.081C568.306 354.081 566.993 355.277 566.993 356.98C566.993 358.67 568.306 359.879 570.061 359.879C571.816 359.879 573.116 358.67 573.116 356.98C573.116 355.277 571.816 354.081 570.061 354.081ZM570.061 355.017C571.205 355.017 572.076 355.823 572.076 356.98C572.076 358.124 571.205 358.93 570.061 358.93C568.917 358.93 568.046 358.124 568.046 356.98C568.046 355.823 568.917 355.017 570.061 355.017Z" fill="#313131"/>
<path d="M615.794 354.51V355.381H623.36V354.51H615.794ZM614.65 362.401V363.298H625.271V362.401H614.65ZM622.788 354.51V355.68C622.788 357.136 622.788 358.891 622.32 361.296L623.399 361.4C623.841 358.865 623.841 357.188 623.841 355.68V354.51H622.788ZM626.986 361.309V362.206H627.766C629.222 362.206 630.548 362.167 632.173 361.881L632.082 360.984C630.496 361.257 629.196 361.309 627.766 361.309H626.986ZM626.96 354.536V355.42H630.314V357.786H626.986V361.647H628.039V358.67H631.367V354.536H626.96ZM635.54 353.262V365.014H636.58V353.262H635.54ZM633.551 357.903V358.787H635.813V357.903H633.551ZM632.875 353.522V364.416H633.889V353.522H632.875ZM639.088 354.211V355.095H645.393V354.211H639.088ZM638.893 359.684C640.908 359.684 643.651 359.645 646.043 359.268L645.952 358.462C643.625 358.748 640.817 358.774 638.763 358.774L638.893 359.684ZM640.245 354.835V359.086H641.285V354.835H640.245ZM643.183 354.835V359.086H644.236V354.835H643.183ZM640.349 360.971V361.855H647.109V365.014H648.201V360.971H640.349ZM647.109 353.262V360.386H648.201V353.262H647.109ZM662.343 353.262V365.04H663.422V353.262H662.343ZM654.569 361.205V362.115H655.518C657.884 362.115 659.418 362.05 661.212 361.712L661.095 360.802C659.353 361.127 657.845 361.205 655.518 361.205H654.569ZM654.569 354.38V361.543H655.635V355.277H660.12V354.38H654.569ZM668.673 354.939V356.85C668.673 358.839 667.256 361.075 665.579 361.894L666.203 362.752C668.036 361.816 669.531 359.294 669.531 356.85V354.939H668.673ZM668.868 354.939V356.85C668.868 359.177 670.285 361.543 672.144 362.466L672.755 361.608C671.052 360.802 669.726 358.709 669.726 356.85V354.939H668.868ZM665.995 354.458V355.368H672.326V354.458H665.995ZM673.717 353.262V365.014H674.809V353.262H673.717ZM674.549 358.007V358.917H676.733V358.007H674.549ZM686.274 353.275V361.855H687.366V353.275H686.274ZM679.813 363.87V364.754H687.717V363.87H679.813ZM679.813 360.971V364.169H680.879V360.971H679.813ZM681.061 354.081C679.306 354.081 677.993 355.277 677.993 356.98C677.993 358.67 679.306 359.879 681.061 359.879C682.816 359.879 684.116 358.67 684.116 356.98C684.116 355.277 682.816 354.081 681.061 354.081ZM681.061 355.017C682.205 355.017 683.076 355.823 683.076 356.98C683.076 358.124 682.205 358.93 681.061 358.93C679.917 358.93 679.046 358.124 679.046 356.98C679.046 355.823 679.917 355.017 681.061 355.017Z" fill="#313131"/>
<path d="M210.775 81.706C210.775 83.149 210.775 84.891 210.307 87.27L211.373 87.387C211.828 84.865 211.828 83.188 211.828 81.706V80.536H203.833V81.407H210.775V81.706ZM202.702 88.375V89.259H213.245V88.375H202.702ZM216.065 84.67H219.38V80.575H214.999V81.446H218.34V83.799H215.038V88.167H215.805C217.248 88.167 218.561 88.115 220.173 87.842L220.095 86.958C218.613 87.218 217.391 87.27 216.065 87.283V84.67ZM223.527 79.301V83.903H221.876V79.561H220.875V90.364H221.876V84.774H223.527V90.949H224.554V79.301H223.527ZM229.311 81.121H231.209V84.67C230.572 84.709 229.935 84.722 229.311 84.735V81.121ZM233.952 84.462C233.393 84.527 232.821 84.566 232.236 84.618V81.121H233.38V80.25H227.127V81.121H228.271V84.761C227.764 84.761 227.257 84.761 226.815 84.761L226.919 85.658C228.934 85.658 231.664 85.619 234.017 85.255L233.952 84.462ZM228.375 87.829H235.109V90.975H236.175V86.958H228.375V87.829ZM235.109 79.314V86.373H236.175V79.314H235.109ZM243.661 81.303H248.12V80.406H242.608V88.089H243.544C245.897 88.089 247.418 88.011 249.212 87.686L249.095 86.789C247.379 87.114 245.91 87.179 243.661 87.179V81.303ZM250.33 79.301V90.988H251.396V79.301H250.33ZM257.739 81.381H260.326V80.497H254.021V81.381H256.686V82.863C256.686 84.839 255.282 87.049 253.618 87.881L254.242 88.726C255.555 88.05 256.686 86.568 257.219 84.865C257.752 86.425 258.844 87.79 260.144 88.44L260.755 87.582C259.065 86.789 257.739 84.722 257.739 82.863V81.381ZM264.707 84.007H262.783V79.314H261.717V90.962H262.783V84.904H264.707V84.007ZM275.34 79.314H274.274V87.829H275.34V79.314ZM267.085 82.98C267.085 81.849 267.943 81.043 269.074 81.043C270.231 81.043 271.089 81.849 271.089 82.98C271.089 84.137 270.231 84.943 269.074 84.943C267.943 84.943 267.085 84.137 267.085 82.98ZM272.129 82.98C272.129 81.303 270.816 80.12 269.074 80.12C267.345 80.12 266.045 81.303 266.045 82.98C266.045 84.67 267.345 85.866 269.074 85.866C270.816 85.866 272.129 84.67 272.129 82.98ZM268.905 89.831V86.958H267.839V90.702H275.691V89.831H268.905Z" fill="#313131"/>
<path d="M343.794 80.51V81.381H351.36V80.51H343.794ZM342.65 88.401V89.298H353.271V88.401H342.65ZM350.788 80.51V81.68C350.788 83.136 350.788 84.891 350.32 87.296L351.399 87.4C351.841 84.865 351.841 83.188 351.841 81.68V80.51H350.788ZM354.986 87.309V88.206H355.766C357.222 88.206 358.548 88.167 360.173 87.881L360.082 86.984C358.496 87.257 357.196 87.309 355.766 87.309H354.986ZM354.96 80.536V81.42H358.314V83.786H354.986V87.647H356.039V84.67H359.367V80.536H354.96ZM363.54 79.262V91.014H364.58V79.262H363.54ZM361.551 83.903V84.787H363.813V83.903H361.551ZM360.875 79.522V90.416H361.889V79.522H360.875ZM367.088 80.211V81.095H373.393V80.211H367.088ZM366.893 85.684C368.908 85.684 371.651 85.645 374.043 85.268L373.952 84.462C371.625 84.748 368.817 84.774 366.763 84.774L366.893 85.684ZM368.245 80.835V85.086H369.285V80.835H368.245ZM371.183 80.835V85.086H372.236V80.835H371.183ZM368.349 86.971V87.855H375.109V91.014H376.201V86.971H368.349ZM375.109 79.262V86.386H376.201V79.262H375.109ZM390.343 79.262V91.04H391.422V79.262H390.343ZM382.569 87.205V88.115H383.518C385.884 88.115 387.418 88.05 389.212 87.712L389.095 86.802C387.353 87.127 385.845 87.205 383.518 87.205H382.569ZM382.569 80.38V87.543H383.635V81.277H388.12V80.38H382.569ZM396.673 80.939V82.85C396.673 84.839 395.256 87.075 393.579 87.894L394.203 88.752C396.036 87.816 397.531 85.294 397.531 82.85V80.939H396.673ZM396.868 80.939V82.85C396.868 85.177 398.285 87.543 400.144 88.466L400.755 87.608C399.052 86.802 397.726 84.709 397.726 82.85V80.939H396.868ZM393.995 80.458V81.368H400.326V80.458H393.995ZM401.717 79.262V91.014H402.809V79.262H401.717ZM402.549 84.007V84.917H404.733V84.007H402.549ZM414.274 79.275V87.855H415.366V79.275H414.274ZM407.813 89.87V90.754H415.717V89.87H407.813ZM407.813 86.971V90.169H408.879V86.971H407.813ZM409.061 80.081C407.306 80.081 405.993 81.277 405.993 82.98C405.993 84.67 407.306 85.879 409.061 85.879C410.816 85.879 412.116 84.67 412.116 82.98C412.116 81.277 410.816 80.081 409.061 80.081ZM409.061 81.017C410.205 81.017 411.076 81.823 411.076 82.98C411.076 84.124 410.205 84.93 409.061 84.93C407.917 84.93 407.046 84.124 407.046 82.98C407.046 81.823 407.917 81.017 409.061 81.017Z" fill="#313131"/>
<path d="M483.794 80.51V81.381H491.36V80.51H483.794ZM482.65 88.401V89.298H493.271V88.401H482.65ZM490.788 80.51V81.68C490.788 83.136 490.788 84.891 490.32 87.296L491.399 87.4C491.841 84.865 491.841 83.188 491.841 81.68V80.51H490.788ZM494.986 87.309V88.206H495.766C497.222 88.206 498.548 88.167 500.173 87.881L500.082 86.984C498.496 87.257 497.196 87.309 495.766 87.309H494.986ZM494.96 80.536V81.42H498.314V83.786H494.986V87.647H496.039V84.67H499.367V80.536H494.96ZM503.54 79.262V91.014H504.58V79.262H503.54ZM501.551 83.903V84.787H503.813V83.903H501.551ZM500.875 79.522V90.416H501.889V79.522H500.875ZM507.088 80.211V81.095H513.393V80.211H507.088ZM506.893 85.684C508.908 85.684 511.651 85.645 514.043 85.268L513.952 84.462C511.625 84.748 508.817 84.774 506.763 84.774L506.893 85.684ZM508.245 80.835V85.086H509.285V80.835H508.245ZM511.183 80.835V85.086H512.236V80.835H511.183ZM508.349 86.971V87.855H515.109V91.014H516.201V86.971H508.349ZM515.109 79.262V86.386H516.201V79.262H515.109ZM530.343 79.262V91.04H531.422V79.262H530.343ZM522.569 87.205V88.115H523.518C525.884 88.115 527.418 88.05 529.212 87.712L529.095 86.802C527.353 87.127 525.845 87.205 523.518 87.205H522.569ZM522.569 80.38V87.543H523.635V81.277H528.12V80.38H522.569ZM536.673 80.939V82.85C536.673 84.839 535.256 87.075 533.579 87.894L534.203 88.752C536.036 87.816 537.531 85.294 537.531 82.85V80.939H536.673ZM536.868 80.939V82.85C536.868 85.177 538.285 87.543 540.144 88.466L540.755 87.608C539.052 86.802 537.726 84.709 537.726 82.85V80.939H536.868ZM533.995 80.458V81.368H540.326V80.458H533.995ZM541.717 79.262V91.014H542.809V79.262H541.717ZM542.549 84.007V84.917H544.733V84.007H542.549ZM554.274 79.275V87.855H555.366V79.275H554.274ZM547.813 89.87V90.754H555.717V89.87H547.813ZM547.813 86.971V90.169H548.879V86.971H547.813ZM549.061 80.081C547.306 80.081 545.993 81.277 545.993 82.98C545.993 84.67 547.306 85.879 549.061 85.879C550.816 85.879 552.116 84.67 552.116 82.98C552.116 81.277 550.816 80.081 549.061 80.081ZM549.061 81.017C550.205 81.017 551.076 81.823 551.076 82.98C551.076 84.124 550.205 84.93 549.061 84.93C547.917 84.93 547.046 84.124 547.046 82.98C547.046 81.823 547.917 81.017 549.061 81.017Z" fill="#313131"/>
<path d="M623.794 80.51V81.381H631.36V80.51H623.794ZM622.65 88.401V89.298H633.271V88.401H622.65ZM630.788 80.51V81.68C630.788 83.136 630.788 84.891 630.32 87.296L631.399 87.4C631.841 84.865 631.841 83.188 631.841 81.68V80.51H630.788ZM634.986 87.309V88.206H635.766C637.222 88.206 638.548 88.167 640.173 87.881L640.082 86.984C638.496 87.257 637.196 87.309 635.766 87.309H634.986ZM634.96 80.536V81.42H638.314V83.786H634.986V87.647H636.039V84.67H639.367V80.536H634.96ZM643.54 79.262V91.014H644.58V79.262H643.54ZM641.551 83.903V84.787H643.813V83.903H641.551ZM640.875 79.522V90.416H641.889V79.522H640.875ZM647.088 80.211V81.095H653.393V80.211H647.088ZM646.893 85.684C648.908 85.684 651.651 85.645 654.043 85.268L653.952 84.462C651.625 84.748 648.817 84.774 646.763 84.774L646.893 85.684ZM648.245 80.835V85.086H649.285V80.835H648.245ZM651.183 80.835V85.086H652.236V80.835H651.183ZM648.349 86.971V87.855H655.109V91.014H656.201V86.971H648.349ZM655.109 79.262V86.386H656.201V79.262H655.109ZM670.343 79.262V91.04H671.422V79.262H670.343ZM662.569 87.205V88.115H663.518C665.884 88.115 667.418 88.05 669.212 87.712L669.095 86.802C667.353 87.127 665.845 87.205 663.518 87.205H662.569ZM662.569 80.38V87.543H663.635V81.277H668.12V80.38H662.569ZM676.673 80.939V82.85C676.673 84.839 675.256 87.075 673.579 87.894L674.203 88.752C676.036 87.816 677.531 85.294 677.531 82.85V80.939H676.673ZM676.868 80.939V82.85C676.868 85.177 678.285 87.543 680.144 88.466L680.755 87.608C679.052 86.802 677.726 84.709 677.726 82.85V80.939H676.868ZM673.995 80.458V81.368H680.326V80.458H673.995ZM681.717 79.262V91.014H682.809V79.262H681.717ZM682.549 84.007V84.917H684.733V84.007H682.549ZM694.274 79.275V87.855H695.366V79.275H694.274ZM687.813 89.87V90.754H695.717V89.87H687.813ZM687.813 86.971V90.169H688.879V86.971H687.813ZM689.061 80.081C687.306 80.081 685.993 81.277 685.993 82.98C685.993 84.67 687.306 85.879 689.061 85.879C690.816 85.879 692.116 84.67 692.116 82.98C692.116 81.277 690.816 80.081 689.061 80.081ZM689.061 81.017C690.205 81.017 691.076 81.823 691.076 82.98C691.076 84.124 690.205 84.93 689.061 84.93C687.917 84.93 687.046 84.124 687.046 82.98C687.046 81.823 687.917 81.017 689.061 81.017Z" fill="#313131"/>
<path d="M763.794 80.51V81.381H771.36V80.51H763.794ZM762.65 88.401V89.298H773.271V88.401H762.65ZM770.788 80.51V81.68C770.788 83.136 770.788 84.891 770.32 87.296L771.399 87.4C771.841 84.865 771.841 83.188 771.841 81.68V80.51H770.788ZM774.986 87.309V88.206H775.766C777.222 88.206 778.548 88.167 780.173 87.881L780.082 86.984C778.496 87.257 777.196 87.309 775.766 87.309H774.986ZM774.96 80.536V81.42H778.314V83.786H774.986V87.647H776.039V84.67H779.367V80.536H774.96ZM783.54 79.262V91.014H784.58V79.262H783.54ZM781.551 83.903V84.787H783.813V83.903H781.551ZM780.875 79.522V90.416H781.889V79.522H780.875ZM787.088 80.211V81.095H793.393V80.211H787.088ZM786.893 85.684C788.908 85.684 791.651 85.645 794.043 85.268L793.952 84.462C791.625 84.748 788.817 84.774 786.763 84.774L786.893 85.684ZM788.245 80.835V85.086H789.285V80.835H788.245ZM791.183 80.835V85.086H792.236V80.835H791.183ZM788.349 86.971V87.855H795.109V91.014H796.201V86.971H788.349ZM795.109 79.262V86.386H796.201V79.262H795.109ZM810.343 79.262V91.04H811.422V79.262H810.343ZM802.569 87.205V88.115H803.518C805.884 88.115 807.418 88.05 809.212 87.712L809.095 86.802C807.353 87.127 805.845 87.205 803.518 87.205H802.569ZM802.569 80.38V87.543H803.635V81.277H808.12V80.38H802.569ZM816.673 80.939V82.85C816.673 84.839 815.256 87.075 813.579 87.894L814.203 88.752C816.036 87.816 817.531 85.294 817.531 82.85V80.939H816.673ZM816.868 80.939V82.85C816.868 85.177 818.285 87.543 820.144 88.466L820.755 87.608C819.052 86.802 817.726 84.709 817.726 82.85V80.939H816.868ZM813.995 80.458V81.368H820.326V80.458H813.995ZM821.717 79.262V91.014H822.809V79.262H821.717ZM822.549 84.007V84.917H824.733V84.007H822.549ZM834.274 79.275V87.855H835.366V79.275H834.274ZM827.813 89.87V90.754H835.717V89.87H827.813ZM827.813 86.971V90.169H828.879V86.971H827.813ZM829.061 80.081C827.306 80.081 825.993 81.277 825.993 82.98C825.993 84.67 827.306 85.879 829.061 85.879C830.816 85.879 832.116 84.67 832.116 82.98C832.116 81.277 830.816 80.081 829.061 80.081ZM829.061 81.017C830.205 81.017 831.076 81.823 831.076 82.98C831.076 84.124 830.205 84.93 829.061 84.93C827.917 84.93 827.046 84.124 827.046 82.98C827.046 81.823 827.917 81.017 829.061 81.017Z" fill="#313131"/>
<path d="M155.365 90.988L159.629 86.724L163.867 90.988L164.569 90.286L160.305 85.996L164.569 81.706L163.867 81.004L159.629 85.294L155.365 81.004L154.663 81.706L158.927 85.996L154.663 90.286L155.365 90.988Z" fill="#AEAEAE"/>
<path d="M295.365 90.988L299.629 86.724L303.867 90.988L304.569 90.286L300.305 85.996L304.569 81.706L303.867 81.004L299.629 85.294L295.365 81.004L294.663 81.706L298.927 85.996L294.663 90.286L295.365 90.988Z" fill="#AEAEAE"/>
<path d="M435.365 90.988L439.629 86.724L443.867 90.988L444.569 90.286L440.305 85.996L444.569 81.706L443.867 81.004L439.629 85.294L435.365 81.004L434.663 81.706L438.927 85.996L434.663 90.286L435.365 90.988Z" fill="#AEAEAE"/>
<path d="M575.365 90.988L579.629 86.724L583.867 90.988L584.569 90.286L580.305 85.996L584.569 81.706L583.867 81.004L579.629 85.294L575.365 81.004L574.663 81.706L578.927 85.996L574.663 90.286L575.365 90.988Z" fill="#AEAEAE"/>
<path d="M715.365 90.988L719.629 86.724L723.867 90.988L724.569 90.286L720.305 85.996L724.569 81.706L723.867 81.004L719.629 85.294L715.365 81.004L714.663 81.706L718.927 85.996L714.663 90.286L715.365 90.988Z" fill="#AEAEAE"/>
<path d="M855.365 90.988L859.629 86.724L863.867 90.988L864.569 90.286L860.305 85.996L864.569 81.706L863.867 81.004L859.629 85.294L855.365 81.004L854.663 81.706L858.927 85.996L854.663 90.286L855.365 90.988Z" fill="#AEAEAE"/>
<rect x="47" y="169" width="164" height="113" rx="5" fill="#D9D9D9"/>
<rect x="228" y="169" width="164" height="113" rx="5" fill="#D9D9D9"/>
<rect x="408" y="169" width="165" height="113" rx="5" fill="#D9D9D9"/>
<rect x="588" y="169" width="165" height="113" rx="5" fill="#D9D9D9"/>
<rect x="769" y="169" width="164" height="113" rx="5" fill="#D9D9D9"/>
<rect x="950" y="169" width="164" height="113" rx="5" fill="#D9D9D9"/>
<defs>
<filter id="filter0_d_226_29589" x="0" y="0" width="1163" height="426" filterUnits="userSpaceOnUse" color-interpolation-filters="sRGB">
<feFlood flood-opacity="0" result="BackgroundImageFix"/>
<feColorMatrix in="SourceAlpha" type="matrix" values="0 0 0 0 0 0 0 0 0 0 0 0 0 0 0 0 0 0 127 0" result="hardAlpha"/>
<feOffset dy="4"/>
<feGaussianBlur stdDeviation="5"/>
<feComposite in2="hardAlpha" operator="out"/>
<feColorMatrix type="matrix" values="0 0 0 0 0 0 0 0 0 0 0 0 0 0 0 0 0 0 0.25 0"/>
<feBlend mode="normal" in2="BackgroundImageFix" result="effect1_dropShadow_226_29589"/>
<feBlend mode="normal" in="SourceGraphic" in2="effect1_dropShadow_226_29589" result="shape"/>
</filter>
</defs>
</svg>
