<svg width="10" height="10" viewBox="0 0 10 10" fill="none" xmlns="http://www.w3.org/2000/svg">
<path d="M3.37988 8.12318V4.65249C3.37988 4.4931 3.44742 4.34117 3.56574 4.23438L6.0102 2.02809C6.12853 1.9213 6.19606 1.76937 6.19606 1.60998V1.01148C6.19606 0.700412 6.44823 0.448242 6.7593 0.448242C7.07037 0.448242 7.32254 0.700411 7.32254 1.01148V2.2451C7.32254 2.36224 7.28602 2.47646 7.21806 2.57186L6.54835 3.51213C6.28277 3.885 6.54934 4.40213 7.00711 4.40213H9.29386C9.60493 4.40213 9.8571 4.6543 9.8571 4.96536V7.29758C9.8571 7.43373 9.80778 7.56528 9.71826 7.66787L8.05411 9.57517C7.94715 9.69776 7.79241 9.76811 7.62971 9.76811H5.02174C4.87209 9.76811 4.72858 9.70855 4.62291 9.60258L3.54428 8.52088C3.439 8.4153 3.37988 8.27228 3.37988 8.12318Z" fill="white"/>
<rect y="4.12012" width="1.68971" height="5.64841" fill="white"/>
</svg>