<svg width="24" height="24" viewBox="0 0 24 24" fill="current" xmlns="http://www.w3.org/2000/svg">
    <path
    d="M12 15.75c1.183 0 2.188-.412 3.012-1.238.825-.825 1.238-1.829 1.238-3.012s-.412-2.188-1.238-3.012C14.188 7.663 13.183 7.25 12 7.25s-2.188.412-3.012 1.238c-.825.825-1.238 1.829-1.238 3.012s.412 2.188 1.238 3.012c.825.825 1.829 1.238 3.012 1.238zm0-1.45c-.783 0-1.446-.27-1.988-.813-.541-.541-.812-1.204-.812-1.987 0-.783.27-1.446.813-1.988.541-.541 1.204-.812 1.987-.812.783 0 1.446.27 1.988.813.541.541.812 1.204.812 1.987 0 .783-.27 1.446-.813 1.988-.541.541-1.204.812-1.987.812zm0 4.7c-2.433 0-4.633-.692-6.6-2.075C3.433 15.542 1.967 13.733 1 11.5c.967-2.233 2.433-4.042 4.4-5.425C7.367 4.692 9.567 4 12 4s4.633.692 6.6 2.075c1.967 1.383 3.433 3.192 4.4 5.425-.967 2.233-2.433 4.042-4.4 5.425C16.633 18.308 14.433 19 12 19z"
    fill="current"
  />
</svg>
