<svg width="24" height="24" viewBox="0 0 24 24" fill="none" xmlns="http://www.w3.org/2000/svg">
<path d="M7.45 17.5H18.15V16.5H7.425C6.19167 16.5 5.14583 16.0625 4.2875 15.1875C3.42917 14.3125 3 13.25 3 12C3 10.7667 3.42083 9.70833 4.2625 8.825C5.10417 7.94167 6.13333 7.5 7.35 7.5H18.15C18.95 7.5 19.625 7.77917 20.175 8.3375C20.725 8.89583 21 9.575 21 10.375C21 11.175 20.725 11.8542 20.175 12.4125C19.625 12.9708 18.95 13.25 18.15 13.25H8.275C7.925 13.25 7.625 13.1292 7.375 12.8875C7.125 12.6458 7 12.35 7 12C7 11.65 7.12917 11.3542 7.3875 11.1125C7.64583 10.8708 7.95 10.75 8.3 10.75H18.15V9.75H8.325C7.69167 9.75 7.14583 9.96667 6.6875 10.4C6.22917 10.8333 6 11.3667 6 12C6 12.6333 6.22083 13.1667 6.6625 13.6C7.10417 14.0333 7.64167 14.25 8.275 14.25H18.15C19.2167 14.25 20.125 13.8708 20.875 13.1125C21.625 12.3542 22 11.4417 22 10.375C22 9.30833 21.625 8.39583 20.875 7.6375C20.125 6.87917 19.2167 6.5 18.15 6.5H7.4C5.88333 6.5 4.60417 7.0375 3.5625 8.1125C2.52083 9.1875 2 10.4833 2 12C2 13.5167 2.52917 14.8125 3.5875 15.8875C4.64583 16.9625 5.93333 17.5 7.45 17.5Z" fill="black"/>
</svg>
