<svg width="24" height="24" viewBox="0 0 24 24" fill="none" xmlns="http://www.w3.org/2000/svg">
<path d="M12 13C10.9 13 9.95833 12.6083 9.175 11.825C8.39167 11.0417 8 10.1 8 9V5.5C8 5.08333 8.14583 4.72917 8.4375 4.4375C8.72917 4.14583 9.08333 4 9.5 4C9.75 4 9.9875 4.05833 10.2125 4.175C10.4375 4.29167 10.6167 4.45833 10.75 4.675C10.8833 4.45833 11.0625 4.29167 11.2875 4.175C11.5125 4.05833 11.75 4 12 4C12.25 4 12.4875 4.05833 12.7125 4.175C12.9375 4.29167 13.1167 4.45833 13.25 4.675C13.3833 4.45833 13.5625 4.29167 13.7875 4.175C14.0125 4.05833 14.25 4 14.5 4C14.9167 4 15.2708 4.14583 15.5625 4.4375C15.8542 4.72917 16 5.08333 16 5.5V9C16 10.1 15.6083 11.0417 14.825 11.825C14.0417 12.6083 13.1 13 12 13ZM4 21V18.65C4 18.0167 4.15833 17.475 4.475 17.025C4.79167 16.575 5.2 16.2333 5.7 16C6.81667 15.5 7.8875 15.125 8.9125 14.875C9.9375 14.625 10.9667 14.5 12 14.5C13.0333 14.5 14.0583 14.6292 15.075 14.8875C16.0917 15.1458 17.1583 15.5167 18.275 16C18.7917 16.2333 19.2083 16.575 19.525 17.025C19.8417 17.475 20 18.0167 20 18.65V21H4Z" fill="black"/>
</svg>
