<svg width="24" height="24" viewBox="0 0 24 24" fill="none" xmlns="http://www.w3.org/2000/svg">
<path d="M17.6254 20.8L11.1754 14.3C10.7921 14.4333 10.4087 14.5417 10.0254 14.625C9.64206 14.7083 9.25039 14.75 8.85039 14.75C7.23372 14.75 5.85872 14.1875 4.72539 13.0625C3.59206 11.9375 3.02539 10.5667 3.02539 8.95C3.02539 8.43333 3.09206 7.92917 3.22539 7.4375C3.35872 6.94583 3.55039 6.48333 3.80039 6.05L7.42539 9.675L9.72539 7.525L6.00039 3.8C6.43372 3.55 6.89206 3.35417 7.37539 3.2125C7.85872 3.07083 8.35039 3 8.85039 3C10.5004 3 11.9046 3.57917 13.0629 4.7375C14.2212 5.89583 14.8004 7.3 14.8004 8.95C14.8004 9.35 14.7587 9.74167 14.6754 10.125C14.5921 10.5083 14.4837 10.8917 14.3504 11.275L20.8254 17.725C21.0087 17.9083 21.1004 18.1292 21.1004 18.3875C21.1004 18.6458 21.0087 18.8667 20.8254 19.05L18.9254 20.8C18.7421 20.9833 18.5254 21.075 18.2754 21.075C18.0254 21.075 17.8087 20.9833 17.6254 20.8Z" fill="black"/>
</svg>
